<svg xmlns="http://www.w3.org/2000/svg" viewBox="0 0 410 410" width="410" height="410" role="img" aria-label="PVP logo">
  <g transform="translate(0,410) scale(0.1,-0.1)" fill="#F97108">
<path d="M1042 3339 c-190 -24 -428 -114 -582 -219 -105 -72 -104 -70 -97
-222 16 -384 165 -728 432 -993 185 -185 353 -284 640 -376 54 -17 260 -43
280 -35 18 7 17 10 -15 34 -228 173 -406 491 -486 871 -55 256 -37 582 46 842
16 51 27 96 24 101 -6 10 -156 8 -242 -3z"/>
<path d="M3000 3314 c-435 -38 -866 -270 -1146 -617 -77 -95 -74 -113 13 -74
250 112 606 124 932 32 274 -77 504 -212 728 -428 28 -27 55 -47 60 -44 16 10
90 167 121 257 62 177 99 447 84 600 -7 61 -9 66 -47 92 -166 114 -522 201
-745 182z"/>
<path d="M1962 2268 c-11 -14 -10 -25 37 -270 34 -181 33 -178 70 -178 41 0
47 12 76 160 14 74 33 166 41 204 16 76 10 96 -32 96 -30 0 -32 -4 -45 -94
-19 -124 -55 -124 -66 0 -6 77 -15 94 -48 94 -12 0 -27 -6 -33 -12z"/>
<path d="M2695 2038 c-2 -7 -6 -42 -10 -76 -34 -340 -331 -767 -700 -1008
-148 -96 -406 -208 -552 -239 -47 -10 -48 -19 -9 -83 149 -237 527 -572 646
-572 54 0 237 110 368 222 478 406 613 1156 307 1703 -37 67 -43 73 -50 53z"/>
  </g>
  <g transform="translate(0,410) scale(0.1,-0.1)" fill="#03637C">
<path d="M2030 4033 c-51 -19 -225 -148 -299 -221 -360 -356 -513 -869 -411
-1377 22 -113 46 -201 65 -242 8 -17 15 -33 15 -36 0 -2 7 -21 16 -42 22 -53
38 -32 54 69 6 44 16 87 21 95 5 9 24 55 43 103 141 358 521 736 899 894 34
14 76 32 92 40 17 7 73 27 125 42 117 36 123 44 80 108 -161 238 -362 423
-578 531 -89 44 -96 46 -122 36z"/>
<path d="M2406 2592 c-3 -6 14 -25 40 -43 158 -109 352 -378 452 -629 80 -201
131 -474 117 -635 -9 -106 -15 -171 -19 -200 -8 -55 -46 -209 -63 -252 -22
-61 -14 -73 49 -73 273 1 623 120 816 278 l45 36 -6 156 c-7 214 -39 353 -128
549 -16 36 -34 73 -39 81 -5 8 -21 35 -36 60 -183 304 -561 566 -939 651 -108
24 -279 37 -289 21z"/>
<path d="M1703 2268 c-8 -13 -5 -427 4 -440 7 -12 48 -9 61 4 7 7 12 40 12 79
0 73 6 83 60 93 62 12 80 39 80 123 0 98 -15 127 -74 142 -60 15 -133 14 -143
-1z"/>
<path d="M2253 2265 c-20 -14 -21 -23 -22 -213 -1 -223 5 -246 52 -225 24 11
26 18 29 79 3 72 1 69 76 100 60 25 72 45 72 129 0 81 -14 109 -66 131 -44 18
-114 18 -141 -1z"/>
<path d="M522 1958 c-126 -183 -216 -486 -229 -771 -7 -149 -9 -145 102 -210
306 -181 683 -234 1040 -146 44 11 96 26 115 34 19 7 55 22 80 31 273 109 579
346 707 548 29 45 20 68 -19 48 -264 -131 -679 -151 -983 -47 -225 77 -380
169 -558 329 -106 96 -163 156 -192 200 -23 35 -29 33 -63 -16z"/>
  </g>
</svg>
